<?xml version="1.0" encoding="utf-8" standalone="no"?>
<!DOCTYPE svg PUBLIC "-//W3C//DTD SVG 1.1//EN"
  "http://www.w3.org/Graphics/SVG/1.1/DTD/svg11.dtd">
<svg xmlns:xlink="http://www.w3.org/1999/xlink" width="532.8pt" height="360pt" viewBox="0 0 532.8 360" xmlns="http://www.w3.org/2000/svg" version="1.1">
 <metadata>
  <rdf:RDF xmlns:dc="http://purl.org/dc/elements/1.1/" xmlns:cc="http://creativecommons.org/ns#" xmlns:rdf="http://www.w3.org/1999/02/22-rdf-syntax-ns#">
   <cc:Work>
    <dc:type rdf:resource="http://purl.org/dc/dcmitype/StillImage"/>
    <dc:date>2026-06-19T20:25:01.052664</dc:date>
    <dc:format>image/svg+xml</dc:format>
    <dc:creator>
     <cc:Agent>
      <dc:title>Matplotlib v3.11.0, https://matplotlib.org/</dc:title>
     </cc:Agent>
    </dc:creator>
   </cc:Work>
  </rdf:RDF>
 </metadata>
 <defs>
  <style type="text/css">*{stroke-linejoin: round; stroke-linecap: butt}</style>
 </defs>
 <g id="figure_1">
  <g id="patch_1">
   <path d="M 0 360 
L 532.8 360 
L 532.8 0 
L 0 0 
z
" style="fill: #ffffff"/>
  </g>
  <g id="axes_1">
   <g id="patch_2">
    <path d="M 47.726154 315.12 
L 513.996923 315.12 
L 513.996923 45.072773 
L 47.726154 45.072773 
z
" style="fill: #ffffff"/>
   </g>
   <g id="matplotlib.axis_1">
    <g id="xtick_1">
     <g id="line2d_1">
      <path d="M 47.726154 315.12 
L 47.726154 45.072773 
" clip-path="url(#pfc1d5f2961)" style="fill: none; stroke: #b0b0b0; stroke-opacity: 0.25; stroke-width: 0.8; stroke-linecap: square"/>
     </g>
     <g id="line2d_2">
      <defs>
       <path id="m808dd70a0d" d="M 0 0 
L 0 3.5 
" style="stroke: #000000; stroke-width: 0.8"/>
      </defs>
      <g>
       <use xlink:href="#m808dd70a0d" x="47.726154" y="315.12" style="stroke: #000000; stroke-width: 0.8"/>
      </g>
     </g>
     <g id="text_1">
      <!-- 0 -->
      <g transform="translate(44.226779 330.477422) scale(0.11 -0.11)">
       <defs>
        <path id="DejaVuSans-13" d="M 2034 4250 
Q 1547 4250 1301 3770 
Q 1056 3291 1056 2328 
Q 1056 1369 1301 889 
Q 1547 409 2034 409 
Q 2525 409 2770 889 
Q 3016 1369 3016 2328 
Q 3016 3291 2770 3770 
Q 2525 4250 2034 4250 
z
M 2034 4750 
Q 2819 4750 3233 4129 
Q 3647 3509 3647 2328 
Q 3647 1150 3233 529 
Q 2819 -91 2034 -91 
Q 1250 -91 836 529 
Q 422 1150 422 2328 
Q 422 3509 836 4129 
Q 1250 4750 2034 4750 
z
" transform="scale(0.015625)"/>
       </defs>
       <use xlink:href="#DejaVuSans-13"/>
      </g>
     </g>
    </g>
    <g id="xtick_2">
     <g id="line2d_3">
      <path d="M 125.437949 315.12 
L 125.437949 45.072773 
" clip-path="url(#pfc1d5f2961)" style="fill: none; stroke: #b0b0b0; stroke-opacity: 0.25; stroke-width: 0.8; stroke-linecap: square"/>
     </g>
     <g id="line2d_4">
      <g>
       <use xlink:href="#m808dd70a0d" x="125.437949" y="315.12" style="stroke: #000000; stroke-width: 0.8"/>
      </g>
     </g>
     <g id="text_2">
      <!-- 2 -->
      <g transform="translate(121.938574 330.477422) scale(0.11 -0.11)">
       <defs>
        <path id="DejaVuSans-15" d="M 1228 531 
L 3431 531 
L 3431 0 
L 469 0 
L 469 531 
Q 828 903 1448 1529 
Q 2069 2156 2228 2338 
Q 2531 2678 2651 2914 
Q 2772 3150 2772 3378 
Q 2772 3750 2511 3984 
Q 2250 4219 1831 4219 
Q 1534 4219 1204 4116 
Q 875 4013 500 3803 
L 500 4441 
Q 881 4594 1212 4672 
Q 1544 4750 1819 4750 
Q 2544 4750 2975 4387 
Q 3406 4025 3406 3419 
Q 3406 3131 3298 2873 
Q 3191 2616 2906 2266 
Q 2828 2175 2409 1742 
Q 1991 1309 1228 531 
z
" transform="scale(0.015625)"/>
       </defs>
       <use xlink:href="#DejaVuSans-15"/>
      </g>
     </g>
    </g>
    <g id="xtick_3">
     <g id="line2d_5">
      <path d="M 203.149744 315.12 
L 203.149744 45.072773 
" clip-path="url(#pfc1d5f2961)" style="fill: none; stroke: #b0b0b0; stroke-opacity: 0.25; stroke-width: 0.8; stroke-linecap: square"/>
     </g>
     <g id="line2d_6">
      <g>
       <use xlink:href="#m808dd70a0d" x="203.149744" y="315.12" style="stroke: #000000; stroke-width: 0.8"/>
      </g>
     </g>
     <g id="text_3">
      <!-- 4 -->
      <g transform="translate(199.650369 330.477422) scale(0.11 -0.11)">
       <defs>
        <path id="DejaVuSans-17" d="M 2419 4116 
L 825 1625 
L 2419 1625 
L 2419 4116 
z
M 2253 4666 
L 3047 4666 
L 3047 1625 
L 3713 1625 
L 3713 1100 
L 3047 1100 
L 3047 0 
L 2419 0 
L 2419 1100 
L 313 1100 
L 313 1709 
L 2253 4666 
z
" transform="scale(0.015625)"/>
       </defs>
       <use xlink:href="#DejaVuSans-17"/>
      </g>
     </g>
    </g>
    <g id="xtick_4">
     <g id="line2d_7">
      <path d="M 280.861538 315.12 
L 280.861538 45.072773 
" clip-path="url(#pfc1d5f2961)" style="fill: none; stroke: #b0b0b0; stroke-opacity: 0.25; stroke-width: 0.8; stroke-linecap: square"/>
     </g>
     <g id="line2d_8">
      <g>
       <use xlink:href="#m808dd70a0d" x="280.861538" y="315.12" style="stroke: #000000; stroke-width: 0.8"/>
      </g>
     </g>
     <g id="text_4">
      <!-- 6 -->
      <g transform="translate(277.362163 330.477422) scale(0.11 -0.11)">
       <defs>
        <path id="DejaVuSans-19" d="M 2113 2584 
Q 1688 2584 1439 2293 
Q 1191 2003 1191 1497 
Q 1191 994 1439 701 
Q 1688 409 2113 409 
Q 2538 409 2786 701 
Q 3034 994 3034 1497 
Q 3034 2003 2786 2293 
Q 2538 2584 2113 2584 
z
M 3366 4563 
L 3366 3988 
Q 3128 4100 2886 4159 
Q 2644 4219 2406 4219 
Q 1781 4219 1451 3797 
Q 1122 3375 1075 2522 
Q 1259 2794 1537 2939 
Q 1816 3084 2150 3084 
Q 2853 3084 3261 2657 
Q 3669 2231 3669 1497 
Q 3669 778 3244 343 
Q 2819 -91 2113 -91 
Q 1303 -91 875 529 
Q 447 1150 447 2328 
Q 447 3434 972 4092 
Q 1497 4750 2381 4750 
Q 2619 4750 2861 4703 
Q 3103 4656 3366 4563 
z
" transform="scale(0.015625)"/>
       </defs>
       <use xlink:href="#DejaVuSans-19"/>
      </g>
     </g>
    </g>
    <g id="xtick_5">
     <g id="line2d_9">
      <path d="M 358.573333 315.12 
L 358.573333 45.072773 
" clip-path="url(#pfc1d5f2961)" style="fill: none; stroke: #b0b0b0; stroke-opacity: 0.25; stroke-width: 0.8; stroke-linecap: square"/>
     </g>
     <g id="line2d_10">
      <g>
       <use xlink:href="#m808dd70a0d" x="358.573333" y="315.12" style="stroke: #000000; stroke-width: 0.8"/>
      </g>
     </g>
     <g id="text_5">
      <!-- 8 -->
      <g transform="translate(355.073958 330.477422) scale(0.11 -0.11)">
       <defs>
        <path id="DejaVuSans-1b" d="M 2034 2216 
Q 1584 2216 1326 1975 
Q 1069 1734 1069 1313 
Q 1069 891 1326 650 
Q 1584 409 2034 409 
Q 2484 409 2743 651 
Q 3003 894 3003 1313 
Q 3003 1734 2745 1975 
Q 2488 2216 2034 2216 
z
M 1403 2484 
Q 997 2584 770 2862 
Q 544 3141 544 3541 
Q 544 4100 942 4425 
Q 1341 4750 2034 4750 
Q 2731 4750 3128 4425 
Q 3525 4100 3525 3541 
Q 3525 3141 3298 2862 
Q 3072 2584 2669 2484 
Q 3125 2378 3379 2068 
Q 3634 1759 3634 1313 
Q 3634 634 3220 271 
Q 2806 -91 2034 -91 
Q 1263 -91 848 271 
Q 434 634 434 1313 
Q 434 1759 690 2068 
Q 947 2378 1403 2484 
z
M 1172 3481 
Q 1172 3119 1398 2916 
Q 1625 2713 2034 2713 
Q 2441 2713 2670 2916 
Q 2900 3119 2900 3481 
Q 2900 3844 2670 4047 
Q 2441 4250 2034 4250 
Q 1625 4250 1398 4047 
Q 1172 3844 1172 3481 
z
" transform="scale(0.015625)"/>
       </defs>
       <use xlink:href="#DejaVuSans-1b"/>
      </g>
     </g>
    </g>
    <g id="xtick_6">
     <g id="line2d_11">
      <path d="M 436.285128 315.12 
L 436.285128 45.072773 
" clip-path="url(#pfc1d5f2961)" style="fill: none; stroke: #b0b0b0; stroke-opacity: 0.25; stroke-width: 0.8; stroke-linecap: square"/>
     </g>
     <g id="line2d_12">
      <g>
       <use xlink:href="#m808dd70a0d" x="436.285128" y="315.12" style="stroke: #000000; stroke-width: 0.8"/>
      </g>
     </g>
     <g id="text_6">
      <!-- 10 -->
      <g transform="translate(429.286378 330.477422) scale(0.11 -0.11)">
       <defs>
        <path id="DejaVuSans-14" d="M 794 531 
L 1825 531 
L 1825 4091 
L 703 3866 
L 703 4441 
L 1819 4666 
L 2450 4666 
L 2450 531 
L 3481 531 
L 3481 0 
L 794 0 
L 794 531 
z
" transform="scale(0.015625)"/>
       </defs>
       <use xlink:href="#DejaVuSans-14"/>
       <use xlink:href="#DejaVuSans-13" transform="translate(63.625 0)"/>
      </g>
     </g>
    </g>
    <g id="xtick_7">
     <g id="line2d_13">
      <path d="M 513.996923 315.12 
L 513.996923 45.072773 
" clip-path="url(#pfc1d5f2961)" style="fill: none; stroke: #b0b0b0; stroke-opacity: 0.25; stroke-width: 0.8; stroke-linecap: square"/>
     </g>
     <g id="line2d_14">
      <g>
       <use xlink:href="#m808dd70a0d" x="513.996923" y="315.12" style="stroke: #000000; stroke-width: 0.8"/>
      </g>
     </g>
     <g id="text_7">
      <!-- 12 -->
      <g transform="translate(506.998173 330.477422) scale(0.11 -0.11)">
       <use xlink:href="#DejaVuSans-14"/>
       <use xlink:href="#DejaVuSans-15" transform="translate(63.625 0)"/>
      </g>
     </g>
    </g>
    <g id="text_8">
     <!-- data-change events per session  D -->
     <g transform="translate(185.245757 345.478281) scale(0.11 -0.11)">
      <defs>
       <path id="DejaVuSans-47" d="M 2906 2969 
L 2906 4863 
L 3481 4863 
L 3481 0 
L 2906 0 
L 2906 525 
Q 2725 213 2448 61 
Q 2172 -91 1784 -91 
Q 1150 -91 751 415 
Q 353 922 353 1747 
Q 353 2572 751 3078 
Q 1150 3584 1784 3584 
Q 2172 3584 2448 3432 
Q 2725 3281 2906 2969 
z
M 947 1747 
Q 947 1113 1208 752 
Q 1469 391 1925 391 
Q 2381 391 2643 752 
Q 2906 1113 2906 1747 
Q 2906 2381 2643 2742 
Q 2381 3103 1925 3103 
Q 1469 3103 1208 2742 
Q 947 2381 947 1747 
z
" transform="scale(0.015625)"/>
       <path id="DejaVuSans-44" d="M 2194 1759 
Q 1497 1759 1228 1600 
Q 959 1441 959 1056 
Q 959 750 1161 570 
Q 1363 391 1709 391 
Q 2188 391 2477 730 
Q 2766 1069 2766 1631 
L 2766 1759 
L 2194 1759 
z
M 3341 1997 
L 3341 0 
L 2766 0 
L 2766 531 
Q 2569 213 2275 61 
Q 1981 -91 1556 -91 
Q 1019 -91 701 211 
Q 384 513 384 1019 
Q 384 1609 779 1909 
Q 1175 2209 1959 2209 
L 2766 2209 
L 2766 2266 
Q 2766 2663 2505 2880 
Q 2244 3097 1772 3097 
Q 1472 3097 1187 3025 
Q 903 2953 641 2809 
L 641 3341 
Q 956 3463 1253 3523 
Q 1550 3584 1831 3584 
Q 2591 3584 2966 3190 
Q 3341 2797 3341 1997 
z
" transform="scale(0.015625)"/>
       <path id="DejaVuSans-57" d="M 1172 4494 
L 1172 3500 
L 2356 3500 
L 2356 3053 
L 1172 3053 
L 1172 1153 
Q 1172 725 1289 603 
Q 1406 481 1766 481 
L 2356 481 
L 2356 0 
L 1766 0 
Q 1100 0 847 248 
Q 594 497 594 1153 
L 594 3053 
L 172 3053 
L 172 3500 
L 594 3500 
L 594 4494 
L 1172 4494 
z
" transform="scale(0.015625)"/>
       <path id="DejaVuSans-10" d="M 313 2009 
L 1997 2009 
L 1997 1497 
L 313 1497 
L 313 2009 
z
" transform="scale(0.015625)"/>
       <path id="DejaVuSans-46" d="M 3122 3366 
L 3122 2828 
Q 2878 2963 2633 3030 
Q 2388 3097 2138 3097 
Q 1578 3097 1268 2742 
Q 959 2388 959 1747 
Q 959 1106 1268 751 
Q 1578 397 2138 397 
Q 2388 397 2633 464 
Q 2878 531 3122 666 
L 3122 134 
Q 2881 22 2623 -34 
Q 2366 -91 2075 -91 
Q 1284 -91 818 406 
Q 353 903 353 1747 
Q 353 2603 823 3093 
Q 1294 3584 2113 3584 
Q 2378 3584 2631 3529 
Q 2884 3475 3122 3366 
z
" transform="scale(0.015625)"/>
       <path id="DejaVuSans-4b" d="M 3513 2113 
L 3513 0 
L 2938 0 
L 2938 2094 
Q 2938 2591 2744 2837 
Q 2550 3084 2163 3084 
Q 1697 3084 1428 2787 
Q 1159 2491 1159 1978 
L 1159 0 
L 581 0 
L 581 4863 
L 1159 4863 
L 1159 2956 
Q 1366 3272 1645 3428 
Q 1925 3584 2291 3584 
Q 2894 3584 3203 3211 
Q 3513 2838 3513 2113 
z
" transform="scale(0.015625)"/>
       <path id="DejaVuSans-51" d="M 3513 2113 
L 3513 0 
L 2938 0 
L 2938 2094 
Q 2938 2591 2744 2837 
Q 2550 3084 2163 3084 
Q 1697 3084 1428 2787 
Q 1159 2491 1159 1978 
L 1159 0 
L 581 0 
L 581 3500 
L 1159 3500 
L 1159 2956 
Q 1366 3272 1645 3428 
Q 1925 3584 2291 3584 
Q 2894 3584 3203 3211 
Q 3513 2838 3513 2113 
z
" transform="scale(0.015625)"/>
       <path id="DejaVuSans-4a" d="M 2906 1791 
Q 2906 2416 2648 2759 
Q 2391 3103 1925 3103 
Q 1463 3103 1205 2759 
Q 947 2416 947 1791 
Q 947 1169 1205 825 
Q 1463 481 1925 481 
Q 2391 481 2648 825 
Q 2906 1169 2906 1791 
z
M 3481 434 
Q 3481 -459 3084 -895 
Q 2688 -1331 1869 -1331 
Q 1566 -1331 1297 -1286 
Q 1028 -1241 775 -1147 
L 775 -588 
Q 1028 -725 1275 -790 
Q 1522 -856 1778 -856 
Q 2344 -856 2625 -561 
Q 2906 -266 2906 331 
L 2906 616 
Q 2728 306 2450 153 
Q 2172 0 1784 0 
Q 1141 0 747 490 
Q 353 981 353 1791 
Q 353 2603 747 3093 
Q 1141 3584 1784 3584 
Q 2172 3584 2450 3431 
Q 2728 3278 2906 2969 
L 2906 3500 
L 3481 3500 
L 3481 434 
z
" transform="scale(0.015625)"/>
       <path id="DejaVuSans-48" d="M 3597 1894 
L 3597 1613 
L 953 1613 
Q 991 1019 1311 708 
Q 1631 397 2203 397 
Q 2534 397 2845 478 
Q 3156 559 3463 722 
L 3463 178 
Q 3153 47 2828 -22 
Q 2503 -91 2169 -91 
Q 1331 -91 842 396 
Q 353 884 353 1716 
Q 353 2575 817 3079 
Q 1281 3584 2069 3584 
Q 2775 3584 3186 3129 
Q 3597 2675 3597 1894 
z
M 3022 2063 
Q 3016 2534 2758 2815 
Q 2500 3097 2075 3097 
Q 1594 3097 1305 2825 
Q 1016 2553 972 2059 
L 3022 2063 
z
" transform="scale(0.015625)"/>
       <path id="DejaVuSans-3" transform="scale(0.015625)"/>
       <path id="DejaVuSans-59" d="M 191 3500 
L 800 3500 
L 1894 563 
L 2988 3500 
L 3597 3500 
L 2284 0 
L 1503 0 
L 191 3500 
z
" transform="scale(0.015625)"/>
       <path id="DejaVuSans-56" d="M 2834 3397 
L 2834 2853 
Q 2591 2978 2328 3040 
Q 2066 3103 1784 3103 
Q 1356 3103 1142 2972 
Q 928 2841 928 2578 
Q 928 2378 1081 2264 
Q 1234 2150 1697 2047 
L 1894 2003 
Q 2506 1872 2764 1633 
Q 3022 1394 3022 966 
Q 3022 478 2636 193 
Q 2250 -91 1575 -91 
Q 1294 -91 989 -36 
Q 684 19 347 128 
L 347 722 
Q 666 556 975 473 
Q 1284 391 1588 391 
Q 1994 391 2212 530 
Q 2431 669 2431 922 
Q 2431 1156 2273 1281 
Q 2116 1406 1581 1522 
L 1381 1569 
Q 847 1681 609 1914 
Q 372 2147 372 2553 
Q 372 3047 722 3315 
Q 1072 3584 1716 3584 
Q 2034 3584 2315 3537 
Q 2597 3491 2834 3397 
z
" transform="scale(0.015625)"/>
       <path id="DejaVuSans-53" d="M 1159 525 
L 1159 -1331 
L 581 -1331 
L 581 3500 
L 1159 3500 
L 1159 2969 
Q 1341 3281 1617 3432 
Q 1894 3584 2278 3584 
Q 2916 3584 3314 3078 
Q 3713 2572 3713 1747 
Q 3713 922 3314 415 
Q 2916 -91 2278 -91 
Q 1894 -91 1617 61 
Q 1341 213 1159 525 
z
M 3116 1747 
Q 3116 2381 2855 2742 
Q 2594 3103 2138 3103 
Q 1681 3103 1420 2742 
Q 1159 2381 1159 1747 
Q 1159 1113 1420 752 
Q 1681 391 2138 391 
Q 2594 391 2855 752 
Q 3116 1113 3116 1747 
z
" transform="scale(0.015625)"/>
       <path id="DejaVuSans-55" d="M 2631 2963 
Q 2534 3019 2420 3045 
Q 2306 3072 2169 3072 
Q 1681 3072 1420 2755 
Q 1159 2438 1159 1844 
L 1159 0 
L 581 0 
L 581 3500 
L 1159 3500 
L 1159 2956 
Q 1341 3275 1631 3429 
Q 1922 3584 2338 3584 
Q 2397 3584 2469 3576 
Q 2541 3569 2628 3553 
L 2631 2963 
z
" transform="scale(0.015625)"/>
       <path id="DejaVuSans-4c" d="M 603 3500 
L 1178 3500 
L 1178 0 
L 603 0 
L 603 3500 
z
M 603 4863 
L 1178 4863 
L 1178 4134 
L 603 4134 
L 603 4863 
z
" transform="scale(0.015625)"/>
       <path id="DejaVuSans-52" d="M 1959 3097 
Q 1497 3097 1228 2736 
Q 959 2375 959 1747 
Q 959 1119 1226 758 
Q 1494 397 1959 397 
Q 2419 397 2687 759 
Q 2956 1122 2956 1747 
Q 2956 2369 2687 2733 
Q 2419 3097 1959 3097 
z
M 1959 3584 
Q 2709 3584 3137 3096 
Q 3566 2609 3566 1747 
Q 3566 888 3137 398 
Q 2709 -91 1959 -91 
Q 1206 -91 779 398 
Q 353 888 353 1747 
Q 353 2609 779 3096 
Q 1206 3584 1959 3584 
z
" transform="scale(0.015625)"/>
       <path id="DejaVuSans-27" d="M 1259 4147 
L 1259 519 
L 2022 519 
Q 2988 519 3436 956 
Q 3884 1394 3884 2338 
Q 3884 3275 3436 3711 
Q 2988 4147 2022 4147 
L 1259 4147 
z
M 628 4666 
L 1925 4666 
Q 3281 4666 3915 4102 
Q 4550 3538 4550 2338 
Q 4550 1131 3912 565 
Q 3275 0 1925 0 
L 628 0 
L 628 4666 
z
" transform="scale(0.015625)"/>
      </defs>
      <use xlink:href="#DejaVuSans-47"/>
      <use xlink:href="#DejaVuSans-44" transform="translate(63.484375 0)"/>
      <use xlink:href="#DejaVuSans-57" transform="translate(124.765625 0)"/>
      <use xlink:href="#DejaVuSans-44" transform="translate(163.96875 0)"/>
      <use xlink:href="#DejaVuSans-10" transform="translate(225.25 0)"/>
      <use xlink:href="#DejaVuSans-46" transform="translate(261.328125 0)"/>
      <use xlink:href="#DejaVuSans-4b" transform="translate(316.3125 0)"/>
      <use xlink:href="#DejaVuSans-44" transform="translate(379.6875 0)"/>
      <use xlink:href="#DejaVuSans-51" transform="translate(440.96875 0)"/>
      <use xlink:href="#DejaVuSans-4a" transform="translate(504.34375 0)"/>
      <use xlink:href="#DejaVuSans-48" transform="translate(567.828125 0)"/>
      <use xlink:href="#DejaVuSans-3" transform="translate(629.359375 0)"/>
      <use xlink:href="#DejaVuSans-48" transform="translate(661.140625 0)"/>
      <use xlink:href="#DejaVuSans-59" transform="translate(722.671875 0)"/>
      <use xlink:href="#DejaVuSans-48" transform="translate(781.859375 0)"/>
      <use xlink:href="#DejaVuSans-51" transform="translate(843.390625 0)"/>
      <use xlink:href="#DejaVuSans-57" transform="translate(906.765625 0)"/>
      <use xlink:href="#DejaVuSans-56" transform="translate(945.96875 0)"/>
      <use xlink:href="#DejaVuSans-3" transform="translate(998.0625 0)"/>
      <use xlink:href="#DejaVuSans-53" transform="translate(1029.84375 0)"/>
      <use xlink:href="#DejaVuSans-48" transform="translate(1093.328125 0)"/>
      <use xlink:href="#DejaVuSans-55" transform="translate(1154.859375 0)"/>
      <use xlink:href="#DejaVuSans-3" transform="translate(1195.96875 0)"/>
      <use xlink:href="#DejaVuSans-56" transform="translate(1227.75 0)"/>
      <use xlink:href="#DejaVuSans-48" transform="translate(1279.84375 0)"/>
      <use xlink:href="#DejaVuSans-56" transform="translate(1341.375 0)"/>
      <use xlink:href="#DejaVuSans-56" transform="translate(1393.46875 0)"/>
      <use xlink:href="#DejaVuSans-4c" transform="translate(1445.5625 0)"/>
      <use xlink:href="#DejaVuSans-52" transform="translate(1473.34375 0)"/>
      <use xlink:href="#DejaVuSans-51" transform="translate(1534.53125 0)"/>
      <use xlink:href="#DejaVuSans-3" transform="translate(1597.90625 0)"/>
      <use xlink:href="#DejaVuSans-3" transform="translate(1629.6875 0)"/>
      <use xlink:href="#DejaVuSans-27" transform="translate(1661.46875 0)"/>
     </g>
    </g>
   </g>
   <g id="matplotlib.axis_2">
    <g id="ytick_1">
     <g id="line2d_15">
      <path d="M 47.726154 315.12 
L 513.996923 315.12 
" clip-path="url(#pfc1d5f2961)" style="fill: none; stroke: #b0b0b0; stroke-opacity: 0.25; stroke-width: 0.8; stroke-linecap: square"/>
     </g>
     <g id="line2d_16">
      <defs>
       <path id="m45ac67b183" d="M 0 0 
L -3.5 0 
" style="stroke: #000000; stroke-width: 0.8"/>
      </defs>
      <g>
       <use xlink:href="#m45ac67b183" x="47.726154" y="315.12" style="stroke: #000000; stroke-width: 0.8"/>
      </g>
     </g>
     <g id="text_9">
      <!-- 0 -->
      <g transform="translate(33.727404 319.298711) scale(0.11 -0.11)">
       <use xlink:href="#DejaVuSans-13"/>
      </g>
     </g>
    </g>
    <g id="ytick_2">
     <g id="line2d_17">
      <path d="M 47.726154 270.965777 
L 513.996923 270.965777 
" clip-path="url(#pfc1d5f2961)" style="fill: none; stroke: #b0b0b0; stroke-opacity: 0.25; stroke-width: 0.8; stroke-linecap: square"/>
     </g>
     <g id="line2d_18">
      <g>
       <use xlink:href="#m45ac67b183" x="47.726154" y="270.965777" style="stroke: #000000; stroke-width: 0.8"/>
      </g>
     </g>
     <g id="text_10">
      <!-- 2 -->
      <g transform="translate(33.727404 275.144488) scale(0.11 -0.11)">
       <use xlink:href="#DejaVuSans-15"/>
      </g>
     </g>
    </g>
    <g id="ytick_3">
     <g id="line2d_19">
      <path d="M 47.726154 226.811554 
L 513.996923 226.811554 
" clip-path="url(#pfc1d5f2961)" style="fill: none; stroke: #b0b0b0; stroke-opacity: 0.25; stroke-width: 0.8; stroke-linecap: square"/>
     </g>
     <g id="line2d_20">
      <g>
       <use xlink:href="#m45ac67b183" x="47.726154" y="226.811554" style="stroke: #000000; stroke-width: 0.8"/>
      </g>
     </g>
     <g id="text_11">
      <!-- 4 -->
      <g transform="translate(33.727404 230.990265) scale(0.11 -0.11)">
       <use xlink:href="#DejaVuSans-17"/>
      </g>
     </g>
    </g>
    <g id="ytick_4">
     <g id="line2d_21">
      <path d="M 47.726154 182.657332 
L 513.996923 182.657332 
" clip-path="url(#pfc1d5f2961)" style="fill: none; stroke: #b0b0b0; stroke-opacity: 0.25; stroke-width: 0.8; stroke-linecap: square"/>
     </g>
     <g id="line2d_22">
      <g>
       <use xlink:href="#m45ac67b183" x="47.726154" y="182.657332" style="stroke: #000000; stroke-width: 0.8"/>
      </g>
     </g>
     <g id="text_12">
      <!-- 6 -->
      <g transform="translate(33.727404 186.836043) scale(0.11 -0.11)">
       <use xlink:href="#DejaVuSans-19"/>
      </g>
     </g>
    </g>
    <g id="ytick_5">
     <g id="line2d_23">
      <path d="M 47.726154 138.503109 
L 513.996923 138.503109 
" clip-path="url(#pfc1d5f2961)" style="fill: none; stroke: #b0b0b0; stroke-opacity: 0.25; stroke-width: 0.8; stroke-linecap: square"/>
     </g>
     <g id="line2d_24">
      <g>
       <use xlink:href="#m45ac67b183" x="47.726154" y="138.503109" style="stroke: #000000; stroke-width: 0.8"/>
      </g>
     </g>
     <g id="text_13">
      <!-- 8 -->
      <g transform="translate(33.727404 142.68182) scale(0.11 -0.11)">
       <use xlink:href="#DejaVuSans-1b"/>
      </g>
     </g>
    </g>
    <g id="ytick_6">
     <g id="line2d_25">
      <path d="M 47.726154 94.348886 
L 513.996923 94.348886 
" clip-path="url(#pfc1d5f2961)" style="fill: none; stroke: #b0b0b0; stroke-opacity: 0.25; stroke-width: 0.8; stroke-linecap: square"/>
     </g>
     <g id="line2d_26">
      <g>
       <use xlink:href="#m45ac67b183" x="47.726154" y="94.348886" style="stroke: #000000; stroke-width: 0.8"/>
      </g>
     </g>
     <g id="text_14">
      <!-- 10 -->
      <g transform="translate(26.728654 98.527597) scale(0.11 -0.11)">
       <use xlink:href="#DejaVuSans-14"/>
       <use xlink:href="#DejaVuSans-13" transform="translate(63.625 0)"/>
      </g>
     </g>
    </g>
    <g id="ytick_7">
     <g id="line2d_27">
      <path d="M 47.726154 50.194663 
L 513.996923 50.194663 
" clip-path="url(#pfc1d5f2961)" style="fill: none; stroke: #b0b0b0; stroke-opacity: 0.25; stroke-width: 0.8; stroke-linecap: square"/>
     </g>
     <g id="line2d_28">
      <g>
       <use xlink:href="#m45ac67b183" x="47.726154" y="50.194663" style="stroke: #000000; stroke-width: 0.8"/>
      </g>
     </g>
     <g id="text_15">
      <!-- 12 -->
      <g transform="translate(26.728654 54.373374) scale(0.11 -0.11)">
       <use xlink:href="#DejaVuSans-14"/>
       <use xlink:href="#DejaVuSans-15" transform="translate(63.625 0)"/>
      </g>
     </g>
    </g>
    <g id="text_16">
     <!-- total compute over 8 queries  (× one full scan) -->
     <g transform="translate(20.086076 309.192559) rotate(-90) scale(0.11 -0.11)">
      <defs>
       <path id="DejaVuSans-4f" d="M 603 4863 
L 1178 4863 
L 1178 0 
L 603 0 
L 603 4863 
z
" transform="scale(0.015625)"/>
       <path id="DejaVuSans-50" d="M 3328 2828 
Q 3544 3216 3844 3400 
Q 4144 3584 4550 3584 
Q 5097 3584 5394 3201 
Q 5691 2819 5691 2113 
L 5691 0 
L 5113 0 
L 5113 2094 
Q 5113 2597 4934 2840 
Q 4756 3084 4391 3084 
Q 3944 3084 3684 2787 
Q 3425 2491 3425 1978 
L 3425 0 
L 2847 0 
L 2847 2094 
Q 2847 2600 2669 2842 
Q 2491 3084 2119 3084 
Q 1678 3084 1418 2786 
Q 1159 2488 1159 1978 
L 1159 0 
L 581 0 
L 581 3500 
L 1159 3500 
L 1159 2956 
Q 1356 3278 1631 3431 
Q 1906 3584 2284 3584 
Q 2666 3584 2933 3390 
Q 3200 3197 3328 2828 
z
" transform="scale(0.015625)"/>
       <path id="DejaVuSans-58" d="M 544 1381 
L 544 3500 
L 1119 3500 
L 1119 1403 
Q 1119 906 1312 657 
Q 1506 409 1894 409 
Q 2359 409 2629 706 
Q 2900 1003 2900 1516 
L 2900 3500 
L 3475 3500 
L 3475 0 
L 2900 0 
L 2900 538 
Q 2691 219 2414 64 
Q 2138 -91 1772 -91 
Q 1169 -91 856 284 
Q 544 659 544 1381 
z
M 1991 3584 
L 1991 3584 
z
" transform="scale(0.015625)"/>
       <path id="DejaVuSans-54" d="M 947 1747 
Q 947 1113 1208 752 
Q 1469 391 1925 391 
Q 2381 391 2643 752 
Q 2906 1113 2906 1747 
Q 2906 2381 2643 2742 
Q 2381 3103 1925 3103 
Q 1469 3103 1208 2742 
Q 947 2381 947 1747 
z
M 2906 525 
Q 2725 213 2448 61 
Q 2172 -91 1784 -91 
Q 1150 -91 751 415 
Q 353 922 353 1747 
Q 353 2572 751 3078 
Q 1150 3584 1784 3584 
Q 2172 3584 2448 3432 
Q 2725 3281 2906 2969 
L 2906 3500 
L 3481 3500 
L 3481 -1331 
L 2906 -1331 
L 2906 525 
z
" transform="scale(0.015625)"/>
       <path id="DejaVuSans-b" d="M 1984 4856 
Q 1566 4138 1362 3434 
Q 1159 2731 1159 2009 
Q 1159 1288 1364 580 
Q 1569 -128 1984 -844 
L 1484 -844 
Q 1016 -109 783 600 
Q 550 1309 550 2009 
Q 550 2706 781 3412 
Q 1013 4119 1484 4856 
L 1984 4856 
z
" transform="scale(0.015625)"/>
       <path id="DejaVuSans-99" d="M 4488 3438 
L 3059 2003 
L 4488 575 
L 4116 197 
L 2681 1631 
L 1247 197 
L 878 575 
L 2303 2003 
L 878 3438 
L 1247 3816 
L 2681 2381 
L 4116 3816 
L 4488 3438 
z
" transform="scale(0.015625)"/>
       <path id="DejaVuSans-49" d="M 2375 4863 
L 2375 4384 
L 1825 4384 
Q 1516 4384 1395 4259 
Q 1275 4134 1275 3809 
L 1275 3500 
L 2222 3500 
L 2222 3053 
L 1275 3053 
L 1275 0 
L 697 0 
L 697 3053 
L 147 3053 
L 147 3500 
L 697 3500 
L 697 3744 
Q 697 4328 969 4595 
Q 1241 4863 1831 4863 
L 2375 4863 
z
" transform="scale(0.015625)"/>
       <path id="DejaVuSans-c" d="M 513 4856 
L 1013 4856 
Q 1481 4119 1714 3412 
Q 1947 2706 1947 2009 
Q 1947 1309 1714 600 
Q 1481 -109 1013 -844 
L 513 -844 
Q 928 -128 1133 580 
Q 1338 1288 1338 2009 
Q 1338 2731 1133 3434 
Q 928 4138 513 4856 
z
" transform="scale(0.015625)"/>
      </defs>
      <use xlink:href="#DejaVuSans-57"/>
      <use xlink:href="#DejaVuSans-52" transform="translate(39.203125 0)"/>
      <use xlink:href="#DejaVuSans-57" transform="translate(100.390625 0)"/>
      <use xlink:href="#DejaVuSans-44" transform="translate(139.59375 0)"/>
      <use xlink:href="#DejaVuSans-4f" transform="translate(200.875 0)"/>
      <use xlink:href="#DejaVuSans-3" transform="translate(228.65625 0)"/>
      <use xlink:href="#DejaVuSans-46" transform="translate(260.4375 0)"/>
      <use xlink:href="#DejaVuSans-52" transform="translate(315.421875 0)"/>
      <use xlink:href="#DejaVuSans-50" transform="translate(376.609375 0)"/>
      <use xlink:href="#DejaVuSans-53" transform="translate(474.015625 0)"/>
      <use xlink:href="#DejaVuSans-58" transform="translate(537.5 0)"/>
      <use xlink:href="#DejaVuSans-57" transform="translate(600.875 0)"/>
      <use xlink:href="#DejaVuSans-48" transform="translate(640.078125 0)"/>
      <use xlink:href="#DejaVuSans-3" transform="translate(701.609375 0)"/>
      <use xlink:href="#DejaVuSans-52" transform="translate(733.390625 0)"/>
      <use xlink:href="#DejaVuSans-59" transform="translate(794.578125 0)"/>
      <use xlink:href="#DejaVuSans-48" transform="translate(853.765625 0)"/>
      <use xlink:href="#DejaVuSans-55" transform="translate(915.296875 0)"/>
      <use xlink:href="#DejaVuSans-3" transform="translate(956.40625 0)"/>
      <use xlink:href="#DejaVuSans-1b" transform="translate(988.1875 0)"/>
      <use xlink:href="#DejaVuSans-3" transform="translate(1051.8125 0)"/>
      <use xlink:href="#DejaVuSans-54" transform="translate(1083.59375 0)"/>
      <use xlink:href="#DejaVuSans-58" transform="translate(1147.078125 0)"/>
      <use xlink:href="#DejaVuSans-48" transform="translate(1210.453125 0)"/>
      <use xlink:href="#DejaVuSans-55" transform="translate(1271.984375 0)"/>
      <use xlink:href="#DejaVuSans-4c" transform="translate(1313.09375 0)"/>
      <use xlink:href="#DejaVuSans-48" transform="translate(1340.875 0)"/>
      <use xlink:href="#DejaVuSans-56" transform="translate(1402.40625 0)"/>
      <use xlink:href="#DejaVuSans-3" transform="translate(1454.5 0)"/>
      <use xlink:href="#DejaVuSans-3" transform="translate(1486.28125 0)"/>
      <use xlink:href="#DejaVuSans-b" transform="translate(1518.0625 0)"/>
      <use xlink:href="#DejaVuSans-99" transform="translate(1557.078125 0)"/>
      <use xlink:href="#DejaVuSans-3" transform="translate(1640.875 0)"/>
      <use xlink:href="#DejaVuSans-52" transform="translate(1672.65625 0)"/>
      <use xlink:href="#DejaVuSans-51" transform="translate(1733.84375 0)"/>
      <use xlink:href="#DejaVuSans-48" transform="translate(1797.21875 0)"/>
      <use xlink:href="#DejaVuSans-3" transform="translate(1858.75 0)"/>
      <use xlink:href="#DejaVuSans-49" transform="translate(1890.53125 0)"/>
      <use xlink:href="#DejaVuSans-58" transform="translate(1925.734375 0)"/>
      <use xlink:href="#DejaVuSans-4f" transform="translate(1989.109375 0)"/>
      <use xlink:href="#DejaVuSans-4f" transform="translate(2016.890625 0)"/>
      <use xlink:href="#DejaVuSans-3" transform="translate(2044.671875 0)"/>
      <use xlink:href="#DejaVuSans-56" transform="translate(2076.453125 0)"/>
      <use xlink:href="#DejaVuSans-46" transform="translate(2128.546875 0)"/>
      <use xlink:href="#DejaVuSans-44" transform="translate(2183.53125 0)"/>
      <use xlink:href="#DejaVuSans-51" transform="translate(2244.8125 0)"/>
      <use xlink:href="#DejaVuSans-c" transform="translate(2308.1875 0)"/>
     </g>
    </g>
   </g>
   <g id="FillBetweenPolyCollection_1">
    <defs>
     <path id="m4ea230df98" d="M 380.441979 -222.082656 
L 380.441979 -221.496891 
L 382.785048 -221.496891 
L 385.128118 -221.496891 
L 387.471187 -221.496891 
L 389.814256 -221.496891 
L 392.157325 -221.496891 
L 394.500394 -221.496891 
L 396.843463 -221.496891 
L 399.186533 -221.496891 
L 401.529602 -221.496891 
L 403.872671 -221.496891 
L 406.21574 -221.496891 
L 408.558809 -221.496891 
L 410.901879 -221.496891 
L 413.244948 -221.496891 
L 415.588017 -221.496891 
L 417.931086 -221.496891 
L 420.274155 -221.496891 
L 422.617225 -221.496891 
L 424.960294 -221.496891 
L 427.303363 -221.496891 
L 429.646432 -221.496891 
L 431.989501 -221.496891 
L 434.332571 -221.496891 
L 436.67564 -221.496891 
L 439.018709 -221.496891 
L 441.361778 -221.496891 
L 443.704847 -221.496891 
L 446.047917 -221.496891 
L 448.390986 -221.496891 
L 450.734055 -221.496891 
L 453.077124 -221.496891 
L 455.420193 -221.496891 
L 457.763262 -221.496891 
L 460.106332 -221.496891 
L 462.449401 -221.496891 
L 464.79247 -221.496891 
L 467.135539 -221.496891 
L 469.478608 -221.496891 
L 471.821678 -221.496891 
L 474.164747 -221.496891 
L 476.507816 -221.496891 
L 478.850885 -221.496891 
L 481.193954 -221.496891 
L 483.537024 -221.496891 
L 485.880093 -221.496891 
L 488.223162 -221.496891 
L 490.566231 -221.496891 
L 492.9093 -221.496891 
L 495.25237 -221.496891 
L 497.595439 -221.496891 
L 499.938508 -221.496891 
L 502.281577 -221.496891 
L 504.624646 -221.496891 
L 506.967716 -221.496891 
L 509.310785 -221.496891 
L 511.653854 -221.496891 
L 513.996923 -221.496891 
L 513.996923 -290.377479 
L 513.996923 -290.377479 
L 511.653854 -289.179324 
L 509.310785 -287.981169 
L 506.967716 -286.783014 
L 504.624646 -285.58486 
L 502.281577 -284.386705 
L 499.938508 -283.18855 
L 497.595439 -281.990395 
L 495.25237 -280.79224 
L 492.9093 -279.594086 
L 490.566231 -278.395931 
L 488.223162 -277.197776 
L 485.880093 -275.999621 
L 483.537024 -274.801466 
L 481.193954 -273.603312 
L 478.850885 -272.405157 
L 476.507816 -271.207002 
L 474.164747 -270.008847 
L 471.821678 -268.810692 
L 469.478608 -267.612538 
L 467.135539 -266.414383 
L 464.79247 -265.216228 
L 462.449401 -264.018073 
L 460.106332 -262.819919 
L 457.763262 -261.621764 
L 455.420193 -260.423609 
L 453.077124 -259.225454 
L 450.734055 -258.027299 
L 448.390986 -256.829145 
L 446.047917 -255.63099 
L 443.704847 -254.432835 
L 441.361778 -253.23468 
L 439.018709 -252.036525 
L 436.67564 -250.838371 
L 434.332571 -249.640216 
L 431.989501 -248.442061 
L 429.646432 -247.243906 
L 427.303363 -246.045751 
L 424.960294 -244.847597 
L 422.617225 -243.649442 
L 420.274155 -242.451287 
L 417.931086 -241.253132 
L 415.588017 -240.054978 
L 413.244948 -238.856823 
L 410.901879 -237.658668 
L 408.558809 -236.460513 
L 406.21574 -235.262358 
L 403.872671 -234.064204 
L 401.529602 -232.866049 
L 399.186533 -231.667894 
L 396.843463 -230.469739 
L 394.500394 -229.271584 
L 392.157325 -228.07343 
L 389.814256 -226.875275 
L 387.471187 -225.67712 
L 385.128118 -224.478965 
L 382.785048 -223.28081 
L 380.441979 -222.082656 
z
" style="stroke: #e94560; stroke-opacity: 0.07"/>
    </defs>
    <g clip-path="url(#pfc1d5f2961)">
     <use xlink:href="#m4ea230df98" x="0" y="360" style="fill: #e94560; fill-opacity: 0.07; stroke: #e94560; stroke-opacity: 0.07"/>
    </g>
   </g>
   <g id="line2d_29">
    <path d="M 47.726154 138.503109 
L 513.996923 138.503109 
L 513.996923 138.503109 
" clip-path="url(#pfc1d5f2961)" style="fill: none; stroke: #e94560; stroke-width: 2.6; stroke-linecap: square"/>
   </g>
   <g id="line2d_30">
    <path d="M 47.726154 308.055324 
L 513.996923 69.622521 
L 513.996923 69.622521 
" clip-path="url(#pfc1d5f2961)" style="fill: none; stroke: #1a1a2e; stroke-width: 2.2; stroke-linecap: square"/>
   </g>
   <g id="line2d_31">
    <path d="M 379.296479 315.12 
L 379.296479 45.072773 
" clip-path="url(#pfc1d5f2961)" style="fill: none; stroke-dasharray: 1.3,2.145; stroke-dashoffset: 0; stroke: #9a9a9a; stroke-width: 1.3"/>
   </g>
   <g id="patch_3">
    <path d="M 47.726154 315.12 
L 47.726154 45.072773 
" style="fill: none; stroke: #000000; stroke-width: 0.8; stroke-linejoin: miter; stroke-linecap: square"/>
   </g>
   <g id="patch_4">
    <path d="M 47.726154 315.12 
L 513.996923 315.12 
" style="fill: none; stroke: #000000; stroke-width: 0.8; stroke-linejoin: miter; stroke-linecap: square"/>
   </g>
   <g id="text_17">
    <!-- break-even -->
    <g style="fill: #9a9a9a" transform="translate(387.067658 120.635972) scale(0.09 -0.09)">
     <defs>
      <path id="DejaVuSans-45" d="M 3116 1747 
Q 3116 2381 2855 2742 
Q 2594 3103 2138 3103 
Q 1681 3103 1420 2742 
Q 1159 2381 1159 1747 
Q 1159 1113 1420 752 
Q 1681 391 2138 391 
Q 2594 391 2855 752 
Q 3116 1113 3116 1747 
z
M 1159 2969 
Q 1341 3281 1617 3432 
Q 1894 3584 2278 3584 
Q 2916 3584 3314 3078 
Q 3713 2572 3713 1747 
Q 3713 922 3314 415 
Q 2916 -91 2278 -91 
Q 1894 -91 1617 61 
Q 1341 213 1159 525 
L 1159 0 
L 581 0 
L 581 4863 
L 1159 4863 
L 1159 2969 
z
" transform="scale(0.015625)"/>
      <path id="DejaVuSans-4e" d="M 581 4863 
L 1159 4863 
L 1159 1991 
L 2875 3500 
L 3609 3500 
L 1753 1863 
L 3688 0 
L 2938 0 
L 1159 1709 
L 1159 0 
L 581 0 
L 581 4863 
z
" transform="scale(0.015625)"/>
     </defs>
     <use xlink:href="#DejaVuSans-45"/>
     <use xlink:href="#DejaVuSans-55" transform="translate(63.484375 0)"/>
     <use xlink:href="#DejaVuSans-48" transform="translate(102.390625 0)"/>
     <use xlink:href="#DejaVuSans-44" transform="translate(163.921875 0)"/>
     <use xlink:href="#DejaVuSans-4e" transform="translate(225.203125 0)"/>
     <use xlink:href="#DejaVuSans-10" transform="translate(283.109375 0)"/>
     <use xlink:href="#DejaVuSans-48" transform="translate(319.1875 0)"/>
     <use xlink:href="#DejaVuSans-59" transform="translate(380.71875 0)"/>
     <use xlink:href="#DejaVuSans-48" transform="translate(439.90625 0)"/>
     <use xlink:href="#DejaVuSans-51" transform="translate(501.4375 0)"/>
    </g>
    <!-- D ≈ 8.5 changes -->
    <g style="fill: #9a9a9a" transform="translate(387.067658 131.438433) scale(0.09 -0.09)">
     <defs>
      <path id="DejaVuSans-cd2" d="M 4684 1947 
L 4684 1388 
Q 4356 1144 4076 1036 
Q 3797 928 3494 928 
Q 3150 928 2694 1113 
Q 2663 1125 2641 1134 
Q 2622 1141 2575 1159 
Q 2091 1350 1797 1350 
Q 1522 1350 1253 1231 
Q 984 1113 678 850 
L 678 1409 
Q 1006 1653 1286 1761 
Q 1566 1869 1869 1869 
Q 2213 1869 2672 1684 
Q 2706 1669 2722 1663 
Q 2741 1656 2788 1638 
Q 3272 1447 3566 1447 
Q 3834 1447 4098 1564 
Q 4363 1681 4684 1947 
z
M 4684 3163 
L 4684 2606 
Q 4356 2359 4076 2251 
Q 3797 2144 3494 2144 
Q 3150 2144 2694 2328 
Q 2663 2341 2641 2350 
Q 2622 2356 2575 2375 
Q 2091 2566 1797 2566 
Q 1522 2566 1253 2447 
Q 984 2328 678 2069 
L 678 2625 
Q 1006 2869 1286 2976 
Q 1566 3084 1869 3084 
Q 2213 3084 2672 2900 
Q 2703 2888 2719 2881 
Q 2741 2872 2788 2853 
Q 3272 2663 3566 2663 
Q 3834 2663 4098 2780 
Q 4363 2897 4684 3163 
z
" transform="scale(0.015625)"/>
      <path id="DejaVuSans-11" d="M 684 794 
L 1344 794 
L 1344 0 
L 684 0 
L 684 794 
z
" transform="scale(0.015625)"/>
      <path id="DejaVuSans-18" d="M 691 4666 
L 3169 4666 
L 3169 4134 
L 1269 4134 
L 1269 2991 
Q 1406 3038 1543 3061 
Q 1681 3084 1819 3084 
Q 2600 3084 3056 2656 
Q 3513 2228 3513 1497 
Q 3513 744 3044 326 
Q 2575 -91 1722 -91 
Q 1428 -91 1123 -41 
Q 819 9 494 109 
L 494 744 
Q 775 591 1075 516 
Q 1375 441 1709 441 
Q 2250 441 2565 725 
Q 2881 1009 2881 1497 
Q 2881 1984 2565 2268 
Q 2250 2553 1709 2553 
Q 1456 2553 1204 2497 
Q 953 2441 691 2322 
L 691 4666 
z
" transform="scale(0.015625)"/>
     </defs>
     <use xlink:href="#DejaVuSans-27"/>
     <use xlink:href="#DejaVuSans-3" transform="translate(77 0)"/>
     <use xlink:href="#DejaVuSans-cd2" transform="translate(108.78125 0)"/>
     <use xlink:href="#DejaVuSans-3" transform="translate(192.578125 0)"/>
     <use xlink:href="#DejaVuSans-1b" transform="translate(224.359375 0)"/>
     <use xlink:href="#DejaVuSans-11" transform="translate(287.984375 0)"/>
     <use xlink:href="#DejaVuSans-18" transform="translate(319.765625 0)"/>
     <use xlink:href="#DejaVuSans-3" transform="translate(383.390625 0)"/>
     <use xlink:href="#DejaVuSans-46" transform="translate(415.171875 0)"/>
     <use xlink:href="#DejaVuSans-4b" transform="translate(470.15625 0)"/>
     <use xlink:href="#DejaVuSans-44" transform="translate(533.53125 0)"/>
     <use xlink:href="#DejaVuSans-51" transform="translate(594.8125 0)"/>
     <use xlink:href="#DejaVuSans-4a" transform="translate(658.1875 0)"/>
     <use xlink:href="#DejaVuSans-48" transform="translate(721.671875 0)"/>
     <use xlink:href="#DejaVuSans-56" transform="translate(783.203125 0)"/>
    </g>
   </g>
   <g id="patch_5">
    <path d="M 486.027869 69.860094 
Q 489.299596 69.76909 491.453722 69.709173 
" style="fill: none; stroke: #9a9a9a; stroke-linecap: round"/>
    <path d="M 487.805065 68.009965 
L 491.453722 69.709173 
L 487.905161 71.608573 
" style="fill: none; stroke: #9a9a9a; stroke-linecap: round"/>
   </g>
   <g id="text_18">
    <!-- streaming / logs: -->
    <g style="fill: #1a1a2e" transform="translate(344.568974 68.82006) scale(0.09 -0.09)">
     <defs>
      <path id="DejaVuSans-12" d="M 1625 4666 
L 2156 4666 
L 531 -594 
L 0 -594 
L 1625 4666 
z
" transform="scale(0.015625)"/>
      <path id="DejaVuSans-1d" d="M 750 794 
L 1409 794 
L 1409 0 
L 750 0 
L 750 794 
z
M 750 3309 
L 1409 3309 
L 1409 2516 
L 750 2516 
L 750 3309 
z
" transform="scale(0.015625)"/>
     </defs>
     <use xlink:href="#DejaVuSans-56"/>
     <use xlink:href="#DejaVuSans-57" transform="translate(52.09375 0)"/>
     <use xlink:href="#DejaVuSans-55" transform="translate(91.296875 0)"/>
     <use xlink:href="#DejaVuSans-48" transform="translate(130.203125 0)"/>
     <use xlink:href="#DejaVuSans-44" transform="translate(191.734375 0)"/>
     <use xlink:href="#DejaVuSans-50" transform="translate(253.015625 0)"/>
     <use xlink:href="#DejaVuSans-4c" transform="translate(350.421875 0)"/>
     <use xlink:href="#DejaVuSans-51" transform="translate(378.203125 0)"/>
     <use xlink:href="#DejaVuSans-4a" transform="translate(441.578125 0)"/>
     <use xlink:href="#DejaVuSans-3" transform="translate(505.0625 0)"/>
     <use xlink:href="#DejaVuSans-12" transform="translate(536.84375 0)"/>
     <use xlink:href="#DejaVuSans-3" transform="translate(570.53125 0)"/>
     <use xlink:href="#DejaVuSans-4f" transform="translate(602.3125 0)"/>
     <use xlink:href="#DejaVuSans-52" transform="translate(630.09375 0)"/>
     <use xlink:href="#DejaVuSans-4a" transform="translate(691.28125 0)"/>
     <use xlink:href="#DejaVuSans-56" transform="translate(754.765625 0)"/>
     <use xlink:href="#DejaVuSans-1d" transform="translate(806.859375 0)"/>
    </g>
    <!-- D → ∞, we win by construction -->
    <g style="fill: #1a1a2e" transform="translate(344.568974 79.622521) scale(0.09 -0.09)">
     <defs>
      <path id="DejaVuSans-c1c" d="M 5050 2147 
L 5050 1866 
L 3822 638 
L 3447 1013 
L 4175 1741 
L 366 1741 
L 366 2272 
L 4175 2272 
L 3447 3000 
L 3822 3375 
L 5050 2147 
z
" transform="scale(0.015625)"/>
      <path id="DejaVuSans-ca8" d="M 2916 1091 
Q 2819 1203 2666 1466 
Q 2456 1091 2272 925 
Q 2041 725 1681 725 
Q 1259 725 981 1041 
Q 688 1372 688 1919 
Q 688 2444 981 2800 
Q 1244 3116 1688 3116 
Q 1916 3116 2084 3022 
Q 2281 2919 2416 2741 
Q 2541 2581 2666 2366 
Q 2875 2741 3059 2906 
Q 3291 3106 3650 3106 
Q 4072 3106 4350 2791 
Q 4644 2459 4644 1913 
Q 4644 1388 4350 1031 
Q 4088 716 3644 716 
Q 3416 716 3247 809 
Q 3078 894 2916 1091 
z
M 1647 1134 
Q 2163 1134 2472 1884 
Q 2075 2703 1647 2703 
Q 1334 2703 1175 2478 
Q 1003 2238 1003 1919 
Q 1003 1569 1175 1353 
Q 1350 1134 1647 1134 
z
M 3684 2697 
Q 3219 2697 2859 1947 
Q 3253 1128 3684 1128 
Q 3997 1128 4156 1353 
Q 4328 1594 4328 1913 
Q 4328 2263 4156 2478 
Q 3981 2697 3684 2697 
z
" transform="scale(0.015625)"/>
      <path id="DejaVuSans-f" d="M 750 794 
L 1409 794 
L 1409 256 
L 897 -744 
L 494 -744 
L 750 256 
L 750 794 
z
" transform="scale(0.015625)"/>
      <path id="DejaVuSans-5a" d="M 269 3500 
L 844 3500 
L 1563 769 
L 2278 3500 
L 2956 3500 
L 3675 769 
L 4391 3500 
L 4966 3500 
L 4050 0 
L 3372 0 
L 2619 2869 
L 1863 0 
L 1184 0 
L 269 3500 
z
" transform="scale(0.015625)"/>
      <path id="DejaVuSans-5c" d="M 2059 -325 
Q 1816 -950 1584 -1140 
Q 1353 -1331 966 -1331 
L 506 -1331 
L 506 -850 
L 844 -850 
Q 1081 -850 1212 -737 
Q 1344 -625 1503 -206 
L 1606 56 
L 191 3500 
L 800 3500 
L 1894 763 
L 2988 3500 
L 3597 3500 
L 2059 -325 
z
" transform="scale(0.015625)"/>
     </defs>
     <use xlink:href="#DejaVuSans-27"/>
     <use xlink:href="#DejaVuSans-3" transform="translate(77 0)"/>
     <use xlink:href="#DejaVuSans-c1c" transform="translate(108.78125 0)"/>
     <use xlink:href="#DejaVuSans-3" transform="translate(192.578125 0)"/>
     <use xlink:href="#DejaVuSans-ca8" transform="translate(224.359375 0)"/>
     <use xlink:href="#DejaVuSans-f" transform="translate(307.65625 0)"/>
     <use xlink:href="#DejaVuSans-3" transform="translate(339.4375 0)"/>
     <use xlink:href="#DejaVuSans-5a" transform="translate(371.21875 0)"/>
     <use xlink:href="#DejaVuSans-48" transform="translate(453 0)"/>
     <use xlink:href="#DejaVuSans-3" transform="translate(514.53125 0)"/>
     <use xlink:href="#DejaVuSans-5a" transform="translate(546.3125 0)"/>
     <use xlink:href="#DejaVuSans-4c" transform="translate(628.09375 0)"/>
     <use xlink:href="#DejaVuSans-51" transform="translate(655.875 0)"/>
     <use xlink:href="#DejaVuSans-3" transform="translate(719.25 0)"/>
     <use xlink:href="#DejaVuSans-45" transform="translate(751.03125 0)"/>
     <use xlink:href="#DejaVuSans-5c" transform="translate(814.515625 0)"/>
     <use xlink:href="#DejaVuSans-3" transform="translate(873.703125 0)"/>
     <use xlink:href="#DejaVuSans-46" transform="translate(905.484375 0)"/>
     <use xlink:href="#DejaVuSans-52" transform="translate(960.46875 0)"/>
     <use xlink:href="#DejaVuSans-51" transform="translate(1021.65625 0)"/>
     <use xlink:href="#DejaVuSans-56" transform="translate(1085.03125 0)"/>
     <use xlink:href="#DejaVuSans-57" transform="translate(1137.125 0)"/>
     <use xlink:href="#DejaVuSans-55" transform="translate(1176.328125 0)"/>
     <use xlink:href="#DejaVuSans-58" transform="translate(1217.4375 0)"/>
     <use xlink:href="#DejaVuSans-46" transform="translate(1280.8125 0)"/>
     <use xlink:href="#DejaVuSans-57" transform="translate(1335.796875 0)"/>
     <use xlink:href="#DejaVuSans-4c" transform="translate(1375 0)"/>
     <use xlink:href="#DejaVuSans-52" transform="translate(1402.78125 0)"/>
     <use xlink:href="#DejaVuSans-51" transform="translate(1463.96875 0)"/>
    </g>
   </g>
   <g id="text_19">
    <!-- Compute-for-storage exchange rate -->
    <g transform="translate(47.726154 23.229164) scale(0.132 -0.132)">
     <defs>
      <path id="DejaVuSans-Bold-26" d="M 4288 256 
Q 3956 84 3597 -3 
Q 3238 -91 2847 -91 
Q 1681 -91 1000 561 
Q 319 1213 319 2328 
Q 319 3447 1000 4098 
Q 1681 4750 2847 4750 
Q 3238 4750 3597 4662 
Q 3956 4575 4288 4403 
L 4288 3438 
Q 3953 3666 3628 3772 
Q 3303 3878 2944 3878 
Q 2300 3878 1931 3465 
Q 1563 3053 1563 2328 
Q 1563 1606 1931 1193 
Q 2300 781 2944 781 
Q 3303 781 3628 887 
Q 3953 994 4288 1222 
L 4288 256 
z
" transform="scale(0.015625)"/>
      <path id="DejaVuSans-Bold-52" d="M 2203 2784 
Q 1831 2784 1636 2517 
Q 1441 2250 1441 1747 
Q 1441 1244 1636 976 
Q 1831 709 2203 709 
Q 2569 709 2762 976 
Q 2956 1244 2956 1747 
Q 2956 2250 2762 2517 
Q 2569 2784 2203 2784 
z
M 2203 3584 
Q 3106 3584 3614 3096 
Q 4122 2609 4122 1747 
Q 4122 884 3614 396 
Q 3106 -91 2203 -91 
Q 1297 -91 786 396 
Q 275 884 275 1747 
Q 275 2609 786 3096 
Q 1297 3584 2203 3584 
z
" transform="scale(0.015625)"/>
      <path id="DejaVuSans-Bold-50" d="M 3781 2919 
Q 3994 3244 4286 3414 
Q 4578 3584 4928 3584 
Q 5531 3584 5847 3212 
Q 6163 2841 6163 2131 
L 6163 0 
L 5038 0 
L 5038 1825 
Q 5041 1866 5042 1909 
Q 5044 1953 5044 2034 
Q 5044 2406 4934 2573 
Q 4825 2741 4581 2741 
Q 4263 2741 4089 2478 
Q 3916 2216 3909 1719 
L 3909 0 
L 2784 0 
L 2784 1825 
Q 2784 2406 2684 2573 
Q 2584 2741 2328 2741 
Q 2006 2741 1831 2477 
Q 1656 2213 1656 1722 
L 1656 0 
L 531 0 
L 531 3500 
L 1656 3500 
L 1656 2988 
Q 1863 3284 2130 3434 
Q 2397 3584 2719 3584 
Q 3081 3584 3359 3409 
Q 3638 3234 3781 2919 
z
" transform="scale(0.015625)"/>
      <path id="DejaVuSans-Bold-53" d="M 1656 506 
L 1656 -1331 
L 538 -1331 
L 538 3500 
L 1656 3500 
L 1656 2988 
Q 1888 3294 2169 3439 
Q 2450 3584 2816 3584 
Q 3463 3584 3878 3070 
Q 4294 2556 4294 1747 
Q 4294 938 3878 423 
Q 3463 -91 2816 -91 
Q 2450 -91 2169 54 
Q 1888 200 1656 506 
z
M 2400 2772 
Q 2041 2772 1848 2508 
Q 1656 2244 1656 1747 
Q 1656 1250 1848 986 
Q 2041 722 2400 722 
Q 2759 722 2948 984 
Q 3138 1247 3138 1747 
Q 3138 2247 2948 2509 
Q 2759 2772 2400 2772 
z
" transform="scale(0.015625)"/>
      <path id="DejaVuSans-Bold-58" d="M 500 1363 
L 500 3500 
L 1625 3500 
L 1625 3150 
Q 1625 2866 1622 2436 
Q 1619 2006 1619 1863 
Q 1619 1441 1641 1255 
Q 1663 1069 1716 984 
Q 1784 875 1895 815 
Q 2006 756 2150 756 
Q 2500 756 2700 1025 
Q 2900 1294 2900 1772 
L 2900 3500 
L 4019 3500 
L 4019 0 
L 2900 0 
L 2900 506 
Q 2647 200 2364 54 
Q 2081 -91 1741 -91 
Q 1134 -91 817 281 
Q 500 653 500 1363 
z
" transform="scale(0.015625)"/>
      <path id="DejaVuSans-Bold-57" d="M 1759 4494 
L 1759 3500 
L 2913 3500 
L 2913 2700 
L 1759 2700 
L 1759 1216 
Q 1759 972 1856 886 
Q 1953 800 2241 800 
L 2816 800 
L 2816 0 
L 1856 0 
Q 1194 0 917 276 
Q 641 553 641 1216 
L 641 2700 
L 84 2700 
L 84 3500 
L 641 3500 
L 641 4494 
L 1759 4494 
z
" transform="scale(0.015625)"/>
      <path id="DejaVuSans-Bold-48" d="M 4031 1759 
L 4031 1441 
L 1416 1441 
Q 1456 1047 1700 850 
Q 1944 653 2381 653 
Q 2734 653 3104 758 
Q 3475 863 3866 1075 
L 3866 213 
Q 3469 63 3072 -14 
Q 2675 -91 2278 -91 
Q 1328 -91 801 392 
Q 275 875 275 1747 
Q 275 2603 792 3093 
Q 1309 3584 2216 3584 
Q 3041 3584 3536 3087 
Q 4031 2591 4031 1759 
z
M 2881 2131 
Q 2881 2450 2695 2645 
Q 2509 2841 2209 2841 
Q 1884 2841 1681 2658 
Q 1478 2475 1428 2131 
L 2881 2131 
z
" transform="scale(0.015625)"/>
      <path id="DejaVuSans-Bold-10" d="M 347 2297 
L 2309 2297 
L 2309 1388 
L 347 1388 
L 347 2297 
z
" transform="scale(0.015625)"/>
      <path id="DejaVuSans-Bold-49" d="M 2841 4863 
L 2841 4128 
L 2222 4128 
Q 1984 4128 1890 4042 
Q 1797 3956 1797 3744 
L 1797 3500 
L 2753 3500 
L 2753 2700 
L 1797 2700 
L 1797 0 
L 678 0 
L 678 2700 
L 122 2700 
L 122 3500 
L 678 3500 
L 678 3744 
Q 678 4316 997 4589 
Q 1316 4863 1984 4863 
L 2841 4863 
z
" transform="scale(0.015625)"/>
      <path id="DejaVuSans-Bold-55" d="M 3138 2547 
Q 2991 2616 2845 2648 
Q 2700 2681 2553 2681 
Q 2122 2681 1889 2404 
Q 1656 2128 1656 1613 
L 1656 0 
L 538 0 
L 538 3500 
L 1656 3500 
L 1656 2925 
Q 1872 3269 2151 3426 
Q 2431 3584 2822 3584 
Q 2878 3584 2943 3579 
Q 3009 3575 3134 3559 
L 3138 2547 
z
" transform="scale(0.015625)"/>
      <path id="DejaVuSans-Bold-56" d="M 3272 3391 
L 3272 2541 
Q 2913 2691 2578 2766 
Q 2244 2841 1947 2841 
Q 1628 2841 1473 2761 
Q 1319 2681 1319 2516 
Q 1319 2381 1436 2309 
Q 1553 2238 1856 2203 
L 2053 2175 
Q 2913 2066 3209 1816 
Q 3506 1566 3506 1031 
Q 3506 472 3093 190 
Q 2681 -91 1863 -91 
Q 1516 -91 1145 -36 
Q 775 19 384 128 
L 384 978 
Q 719 816 1070 734 
Q 1422 653 1784 653 
Q 2113 653 2278 743 
Q 2444 834 2444 1013 
Q 2444 1163 2330 1236 
Q 2216 1309 1875 1350 
L 1678 1375 
Q 931 1469 631 1722 
Q 331 1975 331 2491 
Q 331 3047 712 3315 
Q 1094 3584 1881 3584 
Q 2191 3584 2531 3537 
Q 2872 3491 3272 3391 
z
" transform="scale(0.015625)"/>
      <path id="DejaVuSans-Bold-44" d="M 2106 1575 
Q 1756 1575 1579 1456 
Q 1403 1338 1403 1106 
Q 1403 894 1545 773 
Q 1688 653 1941 653 
Q 2256 653 2472 879 
Q 2688 1106 2688 1447 
L 2688 1575 
L 2106 1575 
z
M 3816 1997 
L 3816 0 
L 2688 0 
L 2688 519 
Q 2463 200 2181 54 
Q 1900 -91 1497 -91 
Q 953 -91 614 226 
Q 275 544 275 1050 
Q 275 1666 698 1953 
Q 1122 2241 2028 2241 
L 2688 2241 
L 2688 2328 
Q 2688 2594 2478 2717 
Q 2269 2841 1825 2841 
Q 1466 2841 1156 2769 
Q 847 2697 581 2553 
L 581 3406 
Q 941 3494 1303 3539 
Q 1666 3584 2028 3584 
Q 2975 3584 3395 3211 
Q 3816 2838 3816 1997 
z
" transform="scale(0.015625)"/>
      <path id="DejaVuSans-Bold-4a" d="M 2919 594 
Q 2688 288 2409 144 
Q 2131 0 1766 0 
Q 1125 0 706 504 
Q 288 1009 288 1791 
Q 288 2575 706 3076 
Q 1125 3578 1766 3578 
Q 2131 3578 2409 3434 
Q 2688 3291 2919 2981 
L 2919 3500 
L 4044 3500 
L 4044 353 
Q 4044 -491 3511 -936 
Q 2978 -1381 1966 -1381 
Q 1638 -1381 1331 -1331 
Q 1025 -1281 716 -1178 
L 716 -306 
Q 1009 -475 1290 -558 
Q 1572 -641 1856 -641 
Q 2406 -641 2662 -400 
Q 2919 -159 2919 353 
L 2919 594 
z
M 2181 2772 
Q 1834 2772 1640 2515 
Q 1447 2259 1447 1791 
Q 1447 1309 1634 1061 
Q 1822 813 2181 813 
Q 2531 813 2725 1069 
Q 2919 1325 2919 1791 
Q 2919 2259 2725 2515 
Q 2531 2772 2181 2772 
z
" transform="scale(0.015625)"/>
      <path id="DejaVuSans-Bold-3" transform="scale(0.015625)"/>
      <path id="DejaVuSans-Bold-5b" d="M 1422 1791 
L 159 3500 
L 1344 3500 
L 2059 2463 
L 2784 3500 
L 3969 3500 
L 2706 1797 
L 4031 0 
L 2847 0 
L 2059 1106 
L 1281 0 
L 97 0 
L 1422 1791 
z
" transform="scale(0.015625)"/>
      <path id="DejaVuSans-Bold-46" d="M 3366 3391 
L 3366 2478 
Q 3138 2634 2908 2709 
Q 2678 2784 2431 2784 
Q 1963 2784 1702 2511 
Q 1441 2238 1441 1747 
Q 1441 1256 1702 982 
Q 1963 709 2431 709 
Q 2694 709 2930 787 
Q 3166 866 3366 1019 
L 3366 103 
Q 3103 6 2833 -42 
Q 2563 -91 2291 -91 
Q 1344 -91 809 395 
Q 275 881 275 1747 
Q 275 2613 809 3098 
Q 1344 3584 2291 3584 
Q 2566 3584 2833 3536 
Q 3100 3488 3366 3391 
z
" transform="scale(0.015625)"/>
      <path id="DejaVuSans-Bold-4b" d="M 4056 2131 
L 4056 0 
L 2931 0 
L 2931 347 
L 2931 1625 
Q 2931 2084 2911 2256 
Q 2891 2428 2841 2509 
Q 2775 2619 2662 2680 
Q 2550 2741 2406 2741 
Q 2056 2741 1856 2470 
Q 1656 2200 1656 1722 
L 1656 0 
L 538 0 
L 538 4863 
L 1656 4863 
L 1656 2988 
Q 1909 3294 2193 3439 
Q 2478 3584 2822 3584 
Q 3428 3584 3742 3212 
Q 4056 2841 4056 2131 
z
" transform="scale(0.015625)"/>
      <path id="DejaVuSans-Bold-51" d="M 4056 2131 
L 4056 0 
L 2931 0 
L 2931 347 
L 2931 1631 
Q 2931 2084 2911 2256 
Q 2891 2428 2841 2509 
Q 2775 2619 2662 2680 
Q 2550 2741 2406 2741 
Q 2056 2741 1856 2470 
Q 1656 2200 1656 1722 
L 1656 0 
L 538 0 
L 538 3500 
L 1656 3500 
L 1656 2988 
Q 1909 3294 2193 3439 
Q 2478 3584 2822 3584 
Q 3428 3584 3742 3212 
Q 4056 2841 4056 2131 
z
" transform="scale(0.015625)"/>
     </defs>
     <use xlink:href="#DejaVuSans-Bold-26"/>
     <use xlink:href="#DejaVuSans-Bold-52" transform="translate(73.390625 0)"/>
     <use xlink:href="#DejaVuSans-Bold-50" transform="translate(142.09375 0)"/>
     <use xlink:href="#DejaVuSans-Bold-53" transform="translate(246.296875 0)"/>
     <use xlink:href="#DejaVuSans-Bold-58" transform="translate(317.875 0)"/>
     <use xlink:href="#DejaVuSans-Bold-57" transform="translate(389.0625 0)"/>
     <use xlink:href="#DejaVuSans-Bold-48" transform="translate(436.859375 0)"/>
     <use xlink:href="#DejaVuSans-Bold-10" transform="translate(504.6875 0)"/>
     <use xlink:href="#DejaVuSans-Bold-49" transform="translate(546.1875 0)"/>
     <use xlink:href="#DejaVuSans-Bold-52" transform="translate(589.6875 0)"/>
     <use xlink:href="#DejaVuSans-Bold-55" transform="translate(658.390625 0)"/>
     <use xlink:href="#DejaVuSans-Bold-10" transform="translate(707.703125 0)"/>
     <use xlink:href="#DejaVuSans-Bold-56" transform="translate(749.203125 0)"/>
     <use xlink:href="#DejaVuSans-Bold-57" transform="translate(808.71875 0)"/>
     <use xlink:href="#DejaVuSans-Bold-52" transform="translate(856.515625 0)"/>
     <use xlink:href="#DejaVuSans-Bold-55" transform="translate(925.21875 0)"/>
     <use xlink:href="#DejaVuSans-Bold-44" transform="translate(974.53125 0)"/>
     <use xlink:href="#DejaVuSans-Bold-4a" transform="translate(1042.015625 0)"/>
     <use xlink:href="#DejaVuSans-Bold-48" transform="translate(1113.59375 0)"/>
     <use xlink:href="#DejaVuSans-Bold-3" transform="translate(1181.421875 0)"/>
     <use xlink:href="#DejaVuSans-Bold-48" transform="translate(1216.234375 0)"/>
     <use xlink:href="#DejaVuSans-Bold-5b" transform="translate(1284.0625 0)"/>
     <use xlink:href="#DejaVuSans-Bold-46" transform="translate(1348.5625 0)"/>
     <use xlink:href="#DejaVuSans-Bold-4b" transform="translate(1407.84375 0)"/>
     <use xlink:href="#DejaVuSans-Bold-44" transform="translate(1479.03125 0)"/>
     <use xlink:href="#DejaVuSans-Bold-51" transform="translate(1546.515625 0)"/>
     <use xlink:href="#DejaVuSans-Bold-4a" transform="translate(1617.703125 0)"/>
     <use xlink:href="#DejaVuSans-Bold-48" transform="translate(1689.28125 0)"/>
     <use xlink:href="#DejaVuSans-Bold-3" transform="translate(1757.109375 0)"/>
     <use xlink:href="#DejaVuSans-Bold-55" transform="translate(1791.921875 0)"/>
     <use xlink:href="#DejaVuSans-Bold-44" transform="translate(1841.234375 0)"/>
     <use xlink:href="#DejaVuSans-Bold-57" transform="translate(1908.71875 0)"/>
     <use xlink:href="#DejaVuSans-Bold-48" transform="translate(1956.515625 0)"/>
    </g>
    <!-- RAG wins only below the break-even churn -->
    <g transform="translate(47.726154 39.072773) scale(0.132 -0.132)">
     <defs>
      <path id="DejaVuSans-Bold-35" d="M 2297 2597 
Q 2675 2597 2839 2737 
Q 3003 2878 3003 3200 
Q 3003 3519 2839 3656 
Q 2675 3794 2297 3794 
L 1791 3794 
L 1791 2597 
L 2297 2597 
z
M 1791 1766 
L 1791 0 
L 588 0 
L 588 4666 
L 2425 4666 
Q 3347 4666 3776 4356 
Q 4206 4047 4206 3378 
Q 4206 2916 3982 2619 
Q 3759 2322 3309 2181 
Q 3556 2125 3751 1926 
Q 3947 1728 4147 1325 
L 4800 0 
L 3519 0 
L 2950 1159 
Q 2778 1509 2601 1637 
Q 2425 1766 2131 1766 
L 1791 1766 
z
" transform="scale(0.015625)"/>
      <path id="DejaVuSans-Bold-24" d="M 3419 850 
L 1538 850 
L 1241 0 
L 31 0 
L 1759 4666 
L 3194 4666 
L 4922 0 
L 3713 0 
L 3419 850 
z
M 1838 1716 
L 3116 1716 
L 2478 3572 
L 1838 1716 
z
" transform="scale(0.015625)"/>
      <path id="DejaVuSans-Bold-2a" d="M 4781 347 
Q 4331 128 3847 18 
Q 3363 -91 2847 -91 
Q 1681 -91 1000 561 
Q 319 1213 319 2328 
Q 319 3456 1012 4103 
Q 1706 4750 2913 4750 
Q 3378 4750 3804 4662 
Q 4231 4575 4609 4403 
L 4609 3438 
Q 4219 3659 3833 3768 
Q 3447 3878 3059 3878 
Q 2341 3878 1952 3476 
Q 1563 3075 1563 2328 
Q 1563 1588 1938 1184 
Q 2313 781 3003 781 
Q 3191 781 3352 804 
Q 3513 828 3641 878 
L 3641 1784 
L 2906 1784 
L 2906 2591 
L 4781 2591 
L 4781 347 
z
" transform="scale(0.015625)"/>
      <path id="DejaVuSans-Bold-5a" d="M 225 3500 
L 1313 3500 
L 1900 1088 
L 2491 3500 
L 3425 3500 
L 4013 1113 
L 4603 3500 
L 5691 3500 
L 4769 0 
L 3547 0 
L 2956 2406 
L 2369 0 
L 1147 0 
L 225 3500 
z
" transform="scale(0.015625)"/>
      <path id="DejaVuSans-Bold-4c" d="M 538 3500 
L 1656 3500 
L 1656 0 
L 538 0 
L 538 3500 
z
M 538 4863 
L 1656 4863 
L 1656 3950 
L 538 3950 
L 538 4863 
z
" transform="scale(0.015625)"/>
      <path id="DejaVuSans-Bold-4f" d="M 538 4863 
L 1656 4863 
L 1656 0 
L 538 0 
L 538 4863 
z
" transform="scale(0.015625)"/>
      <path id="DejaVuSans-Bold-5c" d="M 78 3500 
L 1197 3500 
L 2138 1125 
L 2938 3500 
L 4056 3500 
L 2584 -331 
Q 2363 -916 2067 -1148 
Q 1772 -1381 1288 -1381 
L 641 -1381 
L 641 -647 
L 991 -647 
Q 1275 -647 1404 -556 
Q 1534 -466 1606 -231 
L 1638 -134 
L 78 3500 
z
" transform="scale(0.015625)"/>
      <path id="DejaVuSans-Bold-45" d="M 2400 722 
Q 2759 722 2948 984 
Q 3138 1247 3138 1747 
Q 3138 2247 2948 2509 
Q 2759 2772 2400 2772 
Q 2041 2772 1848 2508 
Q 1656 2244 1656 1747 
Q 1656 1250 1848 986 
Q 2041 722 2400 722 
z
M 1656 2988 
Q 1888 3294 2169 3439 
Q 2450 3584 2816 3584 
Q 3463 3584 3878 3070 
Q 4294 2556 4294 1747 
Q 4294 938 3878 423 
Q 3463 -91 2816 -91 
Q 2450 -91 2169 54 
Q 1888 200 1656 506 
L 1656 0 
L 538 0 
L 538 4863 
L 1656 4863 
L 1656 2988 
z
" transform="scale(0.015625)"/>
      <path id="DejaVuSans-Bold-4e" d="M 538 4863 
L 1656 4863 
L 1656 2216 
L 2944 3500 
L 4244 3500 
L 2534 1894 
L 4378 0 
L 3022 0 
L 1656 1459 
L 1656 0 
L 538 0 
L 538 4863 
z
" transform="scale(0.015625)"/>
      <path id="DejaVuSans-Bold-59" d="M 97 3500 
L 1216 3500 
L 2088 1081 
L 2956 3500 
L 4078 3500 
L 2700 0 
L 1472 0 
L 97 3500 
z
" transform="scale(0.015625)"/>
     </defs>
     <use xlink:href="#DejaVuSans-Bold-35"/>
     <use xlink:href="#DejaVuSans-Bold-24" transform="translate(77 0)"/>
     <use xlink:href="#DejaVuSans-Bold-2a" transform="translate(154.390625 0)"/>
     <use xlink:href="#DejaVuSans-Bold-3" transform="translate(236.46875 0)"/>
     <use xlink:href="#DejaVuSans-Bold-5a" transform="translate(271.28125 0)"/>
     <use xlink:href="#DejaVuSans-Bold-4c" transform="translate(363.671875 0)"/>
     <use xlink:href="#DejaVuSans-Bold-51" transform="translate(397.953125 0)"/>
     <use xlink:href="#DejaVuSans-Bold-56" transform="translate(469.140625 0)"/>
     <use xlink:href="#DejaVuSans-Bold-3" transform="translate(528.65625 0)"/>
     <use xlink:href="#DejaVuSans-Bold-52" transform="translate(563.46875 0)"/>
     <use xlink:href="#DejaVuSans-Bold-51" transform="translate(632.171875 0)"/>
     <use xlink:href="#DejaVuSans-Bold-4f" transform="translate(703.359375 0)"/>
     <use xlink:href="#DejaVuSans-Bold-5c" transform="translate(737.640625 0)"/>
     <use xlink:href="#DejaVuSans-Bold-3" transform="translate(802.828125 0)"/>
     <use xlink:href="#DejaVuSans-Bold-45" transform="translate(837.640625 0)"/>
     <use xlink:href="#DejaVuSans-Bold-48" transform="translate(909.21875 0)"/>
     <use xlink:href="#DejaVuSans-Bold-4f" transform="translate(977.046875 0)"/>
     <use xlink:href="#DejaVuSans-Bold-52" transform="translate(1011.328125 0)"/>
     <use xlink:href="#DejaVuSans-Bold-5a" transform="translate(1080.03125 0)"/>
     <use xlink:href="#DejaVuSans-Bold-3" transform="translate(1172.421875 0)"/>
     <use xlink:href="#DejaVuSans-Bold-57" transform="translate(1207.234375 0)"/>
     <use xlink:href="#DejaVuSans-Bold-4b" transform="translate(1255.03125 0)"/>
     <use xlink:href="#DejaVuSans-Bold-48" transform="translate(1326.21875 0)"/>
     <use xlink:href="#DejaVuSans-Bold-3" transform="translate(1394.046875 0)"/>
     <use xlink:href="#DejaVuSans-Bold-45" transform="translate(1428.859375 0)"/>
     <use xlink:href="#DejaVuSans-Bold-55" transform="translate(1500.4375 0)"/>
     <use xlink:href="#DejaVuSans-Bold-48" transform="translate(1549.75 0)"/>
     <use xlink:href="#DejaVuSans-Bold-44" transform="translate(1617.578125 0)"/>
     <use xlink:href="#DejaVuSans-Bold-4e" transform="translate(1685.0625 0)"/>
     <use xlink:href="#DejaVuSans-Bold-10" transform="translate(1751.5625 0)"/>
     <use xlink:href="#DejaVuSans-Bold-48" transform="translate(1793.0625 0)"/>
     <use xlink:href="#DejaVuSans-Bold-59" transform="translate(1860.890625 0)"/>
     <use xlink:href="#DejaVuSans-Bold-48" transform="translate(1926.078125 0)"/>
     <use xlink:href="#DejaVuSans-Bold-51" transform="translate(1993.90625 0)"/>
     <use xlink:href="#DejaVuSans-Bold-3" transform="translate(2065.09375 0)"/>
     <use xlink:href="#DejaVuSans-Bold-46" transform="translate(2099.90625 0)"/>
     <use xlink:href="#DejaVuSans-Bold-4b" transform="translate(2159.1875 0)"/>
     <use xlink:href="#DejaVuSans-Bold-58" transform="translate(2230.375 0)"/>
     <use xlink:href="#DejaVuSans-Bold-55" transform="translate(2301.5625 0)"/>
     <use xlink:href="#DejaVuSans-Bold-51" transform="translate(2350.875 0)"/>
    </g>
   </g>
   <g id="PathCollection_1">
    <defs>
     <path id="m7ec91c15b8" d="M 0 3.872983 
C 1.027127 3.872983 2.012324 3.464901 2.738613 2.738613 
C 3.464901 2.012324 3.872983 1.027127 3.872983 0 
C 3.872983 -1.027127 3.464901 -2.012324 2.738613 -2.738613 
C 2.012324 -3.464901 1.027127 -3.872983 0 -3.872983 
C -1.027127 -3.872983 -2.012324 -3.464901 -2.738613 -2.738613 
C -3.464901 -2.012324 -3.872983 -1.027127 -3.872983 0 
C -3.872983 1.027127 -3.464901 2.012324 -2.738613 2.738613 
C -2.012324 3.464901 -1.027127 3.872983 0 3.872983 
z
" style="stroke: #9a9a9a"/>
    </defs>
    <g clip-path="url(#pfc1d5f2961)">
     <use xlink:href="#m7ec91c15b8" x="379.296479" y="138.503109" style="fill: #9a9a9a; stroke: #9a9a9a"/>
    </g>
   </g>
   <g id="legend_1">
    <g id="line2d_32">
     <path d="M 55.826154 56.861367 
L 64.826154 56.861367 
L 73.826154 56.861367 
" style="fill: none; stroke: #e94560; stroke-width: 2.6; stroke-linecap: square"/>
    </g>
    <g id="text_20">
     <!-- recompute-over-store (ours) -->
     <g transform="translate(81.026154 60.011367) scale(0.09 -0.09)">
      <use xlink:href="#DejaVuSans-55"/>
      <use xlink:href="#DejaVuSans-48" transform="translate(38.90625 0)"/>
      <use xlink:href="#DejaVuSans-46" transform="translate(100.4375 0)"/>
      <use xlink:href="#DejaVuSans-52" transform="translate(155.421875 0)"/>
      <use xlink:href="#DejaVuSans-50" transform="translate(216.609375 0)"/>
      <use xlink:href="#DejaVuSans-53" transform="translate(314.015625 0)"/>
      <use xlink:href="#DejaVuSans-58" transform="translate(377.5 0)"/>
      <use xlink:href="#DejaVuSans-57" transform="translate(440.875 0)"/>
      <use xlink:href="#DejaVuSans-48" transform="translate(480.078125 0)"/>
      <use xlink:href="#DejaVuSans-10" transform="translate(541.609375 0)"/>
      <use xlink:href="#DejaVuSans-52" transform="translate(579.546875 0)"/>
      <use xlink:href="#DejaVuSans-59" transform="translate(640.734375 0)"/>
      <use xlink:href="#DejaVuSans-48" transform="translate(699.921875 0)"/>
      <use xlink:href="#DejaVuSans-55" transform="translate(761.453125 0)"/>
      <use xlink:href="#DejaVuSans-10" transform="translate(796.171875 0)"/>
      <use xlink:href="#DejaVuSans-56" transform="translate(832.25 0)"/>
      <use xlink:href="#DejaVuSans-57" transform="translate(884.34375 0)"/>
      <use xlink:href="#DejaVuSans-52" transform="translate(923.546875 0)"/>
      <use xlink:href="#DejaVuSans-55" transform="translate(984.734375 0)"/>
      <use xlink:href="#DejaVuSans-48" transform="translate(1023.640625 0)"/>
      <use xlink:href="#DejaVuSans-3" transform="translate(1085.171875 0)"/>
      <use xlink:href="#DejaVuSans-b" transform="translate(1116.953125 0)"/>
      <use xlink:href="#DejaVuSans-52" transform="translate(1155.96875 0)"/>
      <use xlink:href="#DejaVuSans-58" transform="translate(1217.15625 0)"/>
      <use xlink:href="#DejaVuSans-55" transform="translate(1280.53125 0)"/>
      <use xlink:href="#DejaVuSans-56" transform="translate(1321.640625 0)"/>
      <use xlink:href="#DejaVuSans-c" transform="translate(1373.734375 0)"/>
     </g>
    </g>
    <g id="line2d_33">
     <path d="M 55.826154 70.36207 
L 64.826154 70.36207 
L 73.826154 70.36207 
" style="fill: none; stroke: #1a1a2e; stroke-width: 2.2; stroke-linecap: square"/>
    </g>
    <g id="text_21">
     <!-- RAG (index + query) -->
     <g transform="translate(81.026154 73.51207) scale(0.09 -0.09)">
      <defs>
       <path id="DejaVuSans-35" d="M 2841 2188 
Q 3044 2119 3236 1894 
Q 3428 1669 3622 1275 
L 4263 0 
L 3584 0 
L 2988 1197 
Q 2756 1666 2539 1819 
Q 2322 1972 1947 1972 
L 1259 1972 
L 1259 0 
L 628 0 
L 628 4666 
L 2053 4666 
Q 2853 4666 3247 4331 
Q 3641 3997 3641 3322 
Q 3641 2881 3436 2590 
Q 3231 2300 2841 2188 
z
M 1259 4147 
L 1259 2491 
L 2053 2491 
Q 2509 2491 2742 2702 
Q 2975 2913 2975 3322 
Q 2975 3731 2742 3939 
Q 2509 4147 2053 4147 
L 1259 4147 
z
" transform="scale(0.015625)"/>
       <path id="DejaVuSans-24" d="M 2188 4044 
L 1331 1722 
L 3047 1722 
L 2188 4044 
z
M 1831 4666 
L 2547 4666 
L 4325 0 
L 3669 0 
L 3244 1197 
L 1141 1197 
L 716 0 
L 50 0 
L 1831 4666 
z
" transform="scale(0.015625)"/>
       <path id="DejaVuSans-2a" d="M 3809 666 
L 3809 1919 
L 2778 1919 
L 2778 2438 
L 4434 2438 
L 4434 434 
Q 4069 175 3628 42 
Q 3188 -91 2688 -91 
Q 1594 -91 976 548 
Q 359 1188 359 2328 
Q 359 3472 976 4111 
Q 1594 4750 2688 4750 
Q 3144 4750 3555 4637 
Q 3966 4525 4313 4306 
L 4313 3634 
Q 3963 3931 3569 4081 
Q 3175 4231 2741 4231 
Q 1884 4231 1454 3753 
Q 1025 3275 1025 2328 
Q 1025 1384 1454 906 
Q 1884 428 2741 428 
Q 3075 428 3337 486 
Q 3600 544 3809 666 
z
" transform="scale(0.015625)"/>
       <path id="DejaVuSans-5b" d="M 3513 3500 
L 2247 1797 
L 3578 0 
L 2900 0 
L 1881 1375 
L 863 0 
L 184 0 
L 1544 1831 
L 300 3500 
L 978 3500 
L 1906 2253 
L 2834 3500 
L 3513 3500 
z
" transform="scale(0.015625)"/>
       <path id="DejaVuSans-e" d="M 2944 4013 
L 2944 2272 
L 4684 2272 
L 4684 1741 
L 2944 1741 
L 2944 0 
L 2419 0 
L 2419 1741 
L 678 1741 
L 678 2272 
L 2419 2272 
L 2419 4013 
L 2944 4013 
z
" transform="scale(0.015625)"/>
      </defs>
      <use xlink:href="#DejaVuSans-35"/>
      <use xlink:href="#DejaVuSans-24" transform="translate(65.4375 0)"/>
      <use xlink:href="#DejaVuSans-2a" transform="translate(132.09375 0)"/>
      <use xlink:href="#DejaVuSans-3" transform="translate(209.578125 0)"/>
      <use xlink:href="#DejaVuSans-b" transform="translate(241.359375 0)"/>
      <use xlink:href="#DejaVuSans-4c" transform="translate(280.375 0)"/>
      <use xlink:href="#DejaVuSans-51" transform="translate(308.15625 0)"/>
      <use xlink:href="#DejaVuSans-47" transform="translate(371.53125 0)"/>
      <use xlink:href="#DejaVuSans-48" transform="translate(435.015625 0)"/>
      <use xlink:href="#DejaVuSans-5b" transform="translate(494.796875 0)"/>
      <use xlink:href="#DejaVuSans-3" transform="translate(553.984375 0)"/>
      <use xlink:href="#DejaVuSans-e" transform="translate(585.765625 0)"/>
      <use xlink:href="#DejaVuSans-3" transform="translate(669.5625 0)"/>
      <use xlink:href="#DejaVuSans-54" transform="translate(701.34375 0)"/>
      <use xlink:href="#DejaVuSans-58" transform="translate(764.828125 0)"/>
      <use xlink:href="#DejaVuSans-48" transform="translate(828.203125 0)"/>
      <use xlink:href="#DejaVuSans-55" transform="translate(889.734375 0)"/>
      <use xlink:href="#DejaVuSans-5c" transform="translate(930.84375 0)"/>
      <use xlink:href="#DejaVuSans-c" transform="translate(990.03125 0)"/>
     </g>
    </g>
   </g>
  </g>
 </g>
 <defs>
  <clipPath id="pfc1d5f2961">
   <rect x="47.726154" y="45.072773" width="466.270769" height="270.047227"/>
  </clipPath>
 </defs>
</svg>
